<svg width="48" height="34" viewBox="0 0 48 34" fill="none" xmlns="http://www.w3.org/2000/svg">
<path d="M30.0937 22.8062C31.5354 25.1479 33.1021 27.3917 36.4208 27.3917C39.2083 27.3917 40.6708 26.0063 40.6708 24.0896C40.6708 21.7958 39.1583 20.9813 36.0917 19.6458L34.4104 18.9292C29.5583 16.8708 26.3312 14.2917 26.3312 8.84375C26.3312 3.82292 30.175 0.00208219 36.1812 0.00208219C40.4583 0.00208219 43.5312 1.48333 45.7479 5.3625L40.5104 8.71042C39.3583 6.65208 38.1125 5.84167 36.1812 5.84167C34.2104 5.84167 32.9625 7.08542 32.9625 8.71042C32.9625 10.7188 34.2125 11.5313 37.0979 12.775L38.7792 13.4917C44.4979 15.9271 47.7229 18.4146 47.7229 24.0062C47.7229 30.0312 42.9646 33.3333 36.5771 33.3333C30.3292 33.3333 26.7812 30.1979 24.8062 26.3167L30.0937 22.8062ZM5.95625 22.9771C7.01042 24.8646 8.6125 26.3167 10.9167 26.3167C13.1208 26.3167 14.3896 25.4458 14.3896 22.0604V0L21.3333 0V23.1271C21.3333 30.1417 17.2646 33.3333 11.3229 33.3333C5.95417 33.3333 2.07917 29.6958 0.5 26.3167L5.95625 22.9771Z" fill="#000001"/>
</svg>
