<svg width="48" height="31" viewBox="0 0 48 31" fill="none" xmlns="http://www.w3.org/2000/svg">
<path fill-rule="evenodd" clip-rule="evenodd" d="M27.2103 22.5353V29.1941C28.2892 29.7486 29.565 30.165 31.038 30.4422C32.511 30.72 34.0635 30.8586 35.6955 30.8586C37.286 30.8586 38.797 30.7062 40.2283 30.4009C41.6601 30.0957 42.9149 29.5929 43.994 28.8922C45.0726 28.1915 45.9267 27.2761 46.5562 26.1453C47.1852 25.0149 47.5 23.6173 47.5 21.9527C47.5 20.7458 47.3201 19.6881 46.9607 18.7794C46.6008 17.8708 46.0824 17.0628 45.4045 16.3552C44.727 15.6478 43.9142 15.0131 42.9671 14.4513C42.0195 13.8895 40.9513 13.3589 39.7616 12.8595C38.8904 12.4988 38.1089 12.1485 37.4174 11.8087C36.7258 11.4688 36.1381 11.122 35.654 10.7683C35.1699 10.4145 34.7965 10.04 34.5337 9.64459C34.2709 9.24927 34.1395 8.80186 34.1395 8.30248C34.1395 7.84468 34.2571 7.43198 34.4922 7.06439C34.7273 6.69679 35.0593 6.38118 35.488 6.1176C35.9168 5.85406 36.4423 5.64945 37.0647 5.5038C37.6871 5.3581 38.3786 5.28527 39.1393 5.28527C39.6928 5.28527 40.2767 5.3269 40.8925 5.41013C41.5077 5.49335 42.1268 5.62168 42.7492 5.7951C43.3716 5.96848 43.9764 6.18696 44.5646 6.45054C45.1524 6.71412 45.695 7.01928 46.193 7.36609V1.14447C45.1832 0.756036 44.0804 0.468197 42.884 0.280909C41.6877 0.0936209 40.3152 0 38.7659 0C37.1892 0 35.6955 0.169912 34.2847 0.509783C32.874 0.849655 31.6327 1.38028 30.5608 2.10161C29.4889 2.82299 28.6418 3.74201 28.0194 4.85871C27.3971 5.97541 27.0859 7.31059 27.0859 8.8643C27.0859 10.848 27.6564 12.5404 28.7974 13.9415C29.9385 15.3426 31.6707 16.5287 33.9943 17.4997C34.9071 17.8742 35.7577 18.2419 36.5461 18.6026C37.3344 18.9632 38.0156 19.3377 38.5896 19.7262C39.1635 20.1146 39.6163 20.5377 39.9482 20.9955C40.2805 21.4533 40.4462 21.9735 40.4462 22.5561C40.4462 22.9863 40.3427 23.3851 40.1352 23.7526C39.9278 24.12 39.613 24.439 39.1912 24.7097C38.7693 24.9803 38.2438 25.192 37.6145 25.3444C36.9852 25.4968 36.2487 25.5732 35.405 25.5732C33.9666 25.5732 32.5421 25.3202 31.1313 24.8136C29.7206 24.3075 28.4136 23.548 27.2103 22.5353ZM16.0255 5.96017H24.7121V0.474747H0.5V5.96017H9.14416V30.3838H16.0255V5.96017Z" fill="white"/>
</svg>
