<svg version="1.2" xmlns="http://www.w3.org/2000/svg" viewBox="0 0 1500 1500" width="100" height="100">
	<title>okt_logo_opendata (1)-afphoto</title>
	<style>
		.s0 { fill: #ffffff } 
	</style>
	<g id="logo">
		<path id="pozadi" fill-rule="evenodd" class="s0" d="m1257.9 972.5v203.5h-13.3v-203.5zm-1002.5 0v203.5h-13.3v-203.5zm573.5-597.8c180.2 36.6 316 196.1 316 387q0 4-0.1 8l253.4 317-10.4 8.3-243.9-305c-10.4 146.7-101.1 271.4-228.4 330.3l-5.6-12.1c127.2-58.9 216.6-185.8 221.4-333.9l-309.7-387.5c-23.2-4.4-47.2-6.7-71.7-6.7-24.5 0-48.4 2.3-71.6 6.7l-38.6 48.3-10.5-8.3 28.3-35.4q-10.3 2.6-20.4 5.7l-4-12.8q18.6-5.7 37.8-9.6l79-98.8zm-473.9 395q-0.1-4-0.1-8c0-69.2 17.9-134.3 49.2-190.9l11.7 6.5c-29 52.3-46 112.1-47.4 175.7l27.2-34 10.4 8.3-37.5 46.9c3.1 96.8 42.3 184.4 104.6 250.1l-9.7 9.1c-61.2-64.4-100.8-149.4-107.5-243.5l-243.9 305.1-10.4-8.3zm487.2-378.4l289.2 361.7c-3.9-175-125.8-321-289.2-361.7zm-151.5-20.2c19.3-2.9 39.1-4.4 59.2-4.4 20.1 0 39.8 1.5 59.1 4.4l-59.1-73.9z"/>
		<path id="kocka" fill-rule="evenodd" class="s0" d="m613.3 1234.4c-8.9 9.3-18.8 10-26.1 7.3-10.4-4-16.9-15.7-13.7-26.5 2-6.5 7.7-13.2 19.6-16.9l3.9 12.8c-6.1 1.9-9.7 4.6-10.7 8-1.3 4.2 1.6 8.5 5.6 10.1 5.8 2.2 12.9-1.9 18.9-15.2l12.7 2.9c-0.1 5.9 0.8 10.3 2.6 13.3 1.1 2.1 2.6 3.4 4.4 3.8 2.1 0.6 4.3-0.1 6.2-1.5 3.8-2.8 6-8.3 5-15.3l-1.1-7.2 7.3-0.5c1.6-0.1 3.1-0.2 4.7-0.2 55.3-1.8 85.4 0.5 101.4-1.9 4.4-0.7 7.5-1.5 9.3-3.6 1.1-1.2 1.6-2.8 2-4.9 2.4-13.4-5.2-22.3-14.3-30.7-11.3-10.5-25.1-20.3-32.2-33.8l11.8-6.2c6.5 12.2 19.2 20.7 29.5 30.2 12.5 11.6 21.7 24.4 18.3 42.9-0.9 4.8-2.5 8.4-5 11.3-3.5 4-8.9 6.7-17.4 8-16.1 2.4-46 0.3-100.7 1.9-1 17.9-16.2 27.5-28.1 24.5-5.3-1.4-10.7-5.3-13.9-12.6zm-106.4-83c-0.4 6.6-0.7 10.2-0.7 10.2l-0.4 5.1-5 1c0 0-10.4 2.5-26.9-6.7-8.5-4.8-15.3-4.8-19.5-1.7-5.4 4-5.9 12.5 0.5 16.9l-7.6 10.9c-14.6-10.1-13.1-29.5-0.9-38.5 7.5-5.5 19.3-7.5 34 0.7 5.5 3 9.9 4.4 12.9 4.9 2.8-42.6 16.1-287.3-35.8-409l12.3-5.2c21 49.2 31.6 118.4 36.5 186.5l49.5-39.4c10.3-39.1 26.1-76.4 50-108.3l10.7 8.1c-45.3 60.2-60 141.1-64.7 215.6-3.3 52.2-1.6 101.3-1.5 138.7l0.1 10h-0.2c-0.1 12.8-0.5 23.9-1.5 32.9-0.4 3.8-2 6.1-3.8 7.6-1.8 1.6-4 2.4-6.7 2.7q-0.7 0.1-1.6 0c0.9 3.6 0.9 6.9 0.4 9.7-1.2 6-4.8 10.5-9.7 13.4-8.1 4.7-19.7 4.4-27.7-2.3q-2.2-1.7-4-4.2c-10.4 13.1-24.4 13.5-33.2 8.1-6.4-3.8-10.7-10.8-10.5-19.5 0.2-7.4 3.9-16.4 13.8-25.2l8.9 9.9c-11.3 10.1-11.5 19.7-5.3 23.4 6.5 4 16.1-0.4 21.7-15.9l12.9 2.2c0 5.2 1.6 8.8 4.2 11 3.6 2.9 8.8 3 12.5 0.9 3.9-2.2 4.7-7.3 0.5-14.1l-3.5-5.6 5.7-3.5c2.4-1.5 5.6-2 9-1.9 0.9 0.1 2.3 0.2 3.3 0.2 0.9-8.3 1.2-18.3 1.3-29.7zm144.2 27.5c-24.8-6.8-44.1-19.5-58.2-36.1-22.2-26.3-31.2-62.6-26.9-101.7 3.7-32.8 18.9-54.8 37.9-67.4 27.1-18.1 62.1-16.6 83.8 0.7 14.8 11.8 23.8 30.8 20.2 56.3l-13.3-1.8c2.9-19.9-3.7-34.9-15.2-44.1-17.6-14.1-46.1-14.7-68.2 0-16.1 10.7-28.8 29.8-31.9 57.8-3.9 35.1 3.8 67.9 23.8 91.6 20.1 23.7 52.4 38 97.4 36.9l0.8 13.3c-24 2.3-43.4 7.5-60 9.4-18.6 2.1-34.1 0.2-48.5-12.1-4.8-4.1-8.7-5.6-12-4.8-4.5 1.1-6.7 6.2-6.8 10.6-0.1 2.4 0.3 5 2.5 6l-5.8 12c-6.9-3.3-10.3-10.5-10.1-18.4 0.3-10 6.8-20.6 16.9-23.1 6.4-1.6 14.7-0.3 24 7.6 11.3 9.7 23.6 10.6 38.3 8.9 3.6-0.4 7.4-0.9 11.3-1.6zm-63.5-767c16.5-18.9 34.5-54.9 35.6-88.4 0.7-19.9-4.6-38.9-20.6-52.4-23.7 35.4-54.7 81.7-75.8 113l-2.3 3.4-4.2-0.6c-22.3-3.2-47.4 0-65.4 9.7-11 5.9-19.2 14.3-21.7 25.5-3.9 17.8-24.9 34-51.8 35-6.6 0.2-11.9 0.9-14.8 1.2-1 0.1-2.2 0-2.9 0.8-0.6 0.7-1 2.5-1 3.7 0.5 6.9 5.5 13.2 11.1 8.9l5.3-4.1 8.1 10.6-5.3 4.1c-6.3 4.8-12.8 5.2-18.3 3-7.5-2.9-13.5-11.3-14.2-21.6-0.3-4.2 0.2-7.5 1.4-10.1 1.5-3 3.9-5.4 8.5-7.1 4.1-1.5 10.8-2.4 21.6-2.8 19.9-0.7 36.4-11.3 39.3-24.5 3.3-14.9 13.8-26.4 28.3-34.3 19.2-10.4 45.5-14.3 69.5-11.7 22.2-33 54.1-80.6 77.4-115.4l3.8-5.6 5.5 3.8c24.3 16.4 32.8 41.5 31.9 68-1.3 34.9-19.1 72.2-36.3 93.7 6.8 6.7 12.4 17 16.1 29.4 6.6 22.1 7.2 51.1-0.6 76.7-7.6 24.6-23.8 66.4-3.4 103.8 8.6 15.8 23.8 30.8 48.8 43.4 89.2 38.5 155.4 99.1 164.5 203 5.2 59.8-21.2 99-39.9 129.1-5.7 9.3-10.7 17.6-13.4 25.4-2.3 6.5-2.9 12.6-0.4 18.6 5.3 12.4 19.1 11.7 35.2 4.4 29.5-13.5 65.7-50.5 85.4-99.7 20.8-52.2 28.2-98.7 17-141.3-11.2-42.5-41-81-93.8-117.7-65.3-45.4-83.4-113.8-29.4-157.5 29.9-24.1 64.6-15.5 82.8 5 9.4 10.6 13.7 24.3 12.7 38.6-1.2 19.3-19.3 31.7-33.9 38.6-2.2-2.9-1.9-2.4-4-5.1 11.7-19.7 2.2-37.8-7.6-42.7-14.2-7.2-34.8 6.1-33.1 33.2 0.8 12.2 7.9 22.3 18.2 32.3 11.4 11.3 26.7 22.2 42.9 35 50.6 39.9 110.1 96.4 97.8 224.6-15.8 164.6-172 259.5-172 259.5l-5.7 3.4-7-11.4 5.7-3.4c0 0 150.5-91.1 165.7-249.4 11.6-121.5-44.8-175-92.8-212.8-20.1-15.8-38.7-29.1-50.8-43.2-8.9-10.4-14.5-21.3-15.3-33.7-2.6-40.4 31.2-56.6 52.3-46.1 10.6 5.3 19.2 17.7 18.2 38.3 9.4-12.2 10.4-25.3 5.5-36.4-10.1-23-43.3-36.3-71.2-13.9-46.9 37.9-28.1 96.7 28.6 136.1 56.1 39 87.3 80.2 99.1 125.3 11.9 45.1 4.5 94.4-17.5 149.6-24.8 62.2-74.9 105.6-108.2 112.3-17.4 3.5-30.8-1.9-37.1-16.7-3.8-9.1-3.3-18.3 0.1-28.2 3-8.6 8.4-17.8 14.7-28 17.5-28.3 42.8-64.9 37.9-121-8.6-98.5-72-155.5-156.7-191.9l-0.3-0.2c-28.2-14.2-45.1-31.2-54.8-49-22.3-41.2-5.9-87 2.4-114.1 7.1-23 6.5-49.1 0.6-69-3.6-12.2-9.5-22.4-16.4-27.7 0 0-2.3-2-5.8-4.1 5.9-6.7 6.7-7.7 6.2-7.2q-0.9 1.1-1.8 2.1c0 0 1.4-1.6 1.8-2.1zm-79 705.9c-0.4 9.1-0.7 17-1.1 23.6l29.6-0.2c0-7.3-0.1-15.2-0.2-23.4zm1-33.5c-0.1 8.4-0.4 16.2-0.6 23.5h27.8q-0.1-11.4-0.2-23.5zm0.4-26.1q-0.1 8.3-0.2 16.1h26.7c0-9.3 0.1-18.9 0.3-28.8zm-0.1-41.3c0.2 10.4 0.2 20.5 0.2 30.2l26.9-12.8c0.3-10.3 0.7-20.8 1.4-31.5zm-1.4-51.9c0.6 13.9 1 27.6 1.2 40.9l29.5-14.5q0.9-13.1 2.4-26.4zm-1.4-26.3q0.5 8.2 0.9 16.3h34.8c2.2-17.4 5.2-34.8 9.1-52zm78.2-61.6l6-12 5.9 3c28.8 14.5 48.2 36.4 47.5 74.4l-0.1 6.6-13.3-0.2 0.1-6.7c0.5-31.9-16-50-40.2-62.2zm-125.2-48.3c-10.4-2.8-21.1-11.4-29.4-24.2-18.2-27.8-25.9-75.7 2.5-119.8 36.1-56.2 38.6-91.3 30.6-111.9-4.8-12.2-13.1-18.8-18.7-21-3.7-1.5-8-0.7-12.4 0.4-5.8 1.4-11.7 3.6-16.8 4.8-8.9 2.2-20.8 2.2-29.5-1.2-5.3-2.1-9.6-5.5-12.1-10.1-2.5-4.6-3.5-10.5-1.4-18l12.9 3.5c-1 3.4-0.9 6 0.2 8.1 1.1 1.9 3 3.2 5.3 4.1 6.4 2.5 15 2.2 21.5 0.7 6.2-1.5 13.6-4.4 20.7-5.7 5.9-1.1 11.6-1 16.5 1 18 7.1 62 47.5-5.6 152.5-21.4 33.3-19.7 69-8.7 94 6.9 15.6 17.2 27 27.9 29.9zm-89-333.3c-1.4 7.1 1.7 12.3 6.8 15.1 7.8 4.2 19.6 2.9 27.2-5.6 5.5-6.2 8.6-16 7.2-29.9l10-1c1.7 17.6-2.8 29.7-9.7 37.5-11 12.4-28.2 13.9-39.5 7.8-8.7-4.7-14.2-13.7-11.8-25.8zm123-44.6q-3.1-3-6.3-6.7c-5.5-6.4-10.4-10.5-14.7-12.7-0.3 4.5-3.2 8.3-7.1 10 8.9 1.4 15.7 3.8 15.7 3.8l-3.2 9.4c0 0-16.3-5.6-30.4-3.9l-7.3 0.8 1.8-7.1c2.4-9.2 7.1-17.6 13.6-21.7 8.9-5.7 22.4-4.8 39.2 14.9q2.9 3.4 5.7 6.1zm58.6-64.4c3.6 2.1 8.1 5.2 14.8 10.8l-5.8 7.9c-11.7-9.7-17.9-12-17.9-12l-6.3-2 65.4-97.1 4.3 5.4c0 0 20.9 24.5-21.8 93.5l-8.5-5.3c25.1-40.5 26.8-63.4 25.1-74.1z"/>
	</g>
</svg>