<svg width="212" height="46" viewBox="0 0 212 46" fill="none" xmlns="http://www.w3.org/2000/svg">
<path d="M41.4321 42.7578C40.0103 43.3359 38.7134 43.7266 37.5415 43.9297C36.3696 44.1328 35.3149 44.2344 34.3774 44.2344C33.6274 44.2344 32.979 44.1875 32.4321 44.0938C31.8853 44.0156 31.4165 43.9141 31.0259 43.7891C30.5728 43.6484 30.1821 43.4922 29.854 43.3203C29.1665 42.9297 28.5649 42.4219 28.0493 41.7969C27.5337 41.1719 27.0649 40.5 26.6431 39.7812C26.2368 39.0625 25.8696 38.3203 25.5415 37.5547C25.2134 36.7891 24.8931 36.0703 24.5806 35.3984L23.9946 34.1562C22.4165 34.6094 20.9399 35.1328 19.5649 35.7266C18.2056 36.3047 16.9946 36.8828 15.9321 37.4609C14.8696 38.0234 13.9712 38.5469 13.2368 39.0312C12.5181 39.5 12.0103 39.8438 11.7134 40.0625C11.1353 40.7031 10.4868 41.2734 9.76807 41.7734C9.04932 42.2734 8.24463 42.7031 7.354 43.0625C6.46338 43.4062 5.47119 43.6719 4.37744 43.8594C3.28369 44.0469 2.08057 44.1406 0.768066 44.1406L0.533691 43.1328C2.04932 42.8828 3.354 42.3984 4.44775 41.6797C5.55713 40.9609 6.51025 40.0781 7.30713 39.0312C8.104 37.9688 8.78369 36.7812 9.34619 35.4688C9.90869 34.1406 10.4087 32.7422 10.8462 31.2734C11.0962 30.4297 11.4243 29.5391 11.8306 28.6016C12.2524 27.6641 12.7524 26.7578 13.3306 25.8828C13.9243 24.9922 14.5962 24.1641 15.3462 23.3984C16.1118 22.6172 16.979 21.9609 17.9478 21.4297C17.6821 20.9297 17.4165 20.4219 17.1509 19.9062C16.9009 19.375 16.6587 18.8438 16.4243 18.3125C16.0962 17.6875 15.7681 17 15.4399 16.25C15.1118 15.4844 14.7212 14.7812 14.2681 14.1406C13.8306 13.4844 13.3071 12.9375 12.6978 12.5C12.104 12.0625 11.3618 11.8438 10.4712 11.8438C9.84619 11.8438 9.229 11.9141 8.61963 12.0547C8.02588 12.1953 7.45557 12.3672 6.90869 12.5703L6.58057 11.6094C7.93994 11.1563 9.31494 10.7734 10.7056 10.4609C12.1118 10.1328 13.5024 9.96875 14.8774 9.96875C15.5337 9.96875 16.1821 10.0156 16.8228 10.1094C17.4634 10.1875 18.0806 10.3359 18.6743 10.5547C19.1899 10.7422 19.6899 11.0547 20.1743 11.4922C20.6587 11.9141 21.1196 12.4219 21.5571 13.0156C21.9946 13.5938 22.4009 14.2188 22.7759 14.8906C23.1665 15.5625 23.5259 16.2344 23.854 16.9062C24.1978 17.5781 24.5024 18.2188 24.7681 18.8281C25.0493 19.4219 25.2915 19.9375 25.4946 20.375C26.8696 23.3281 28.2368 26.2891 29.5962 29.2578C30.9556 32.2109 32.4165 35.125 33.979 38C34.2603 38.5156 34.5571 39.0234 34.8696 39.5234C35.1978 40.0234 35.5571 40.4688 35.9478 40.8594C36.354 41.25 36.7993 41.5625 37.2837 41.7969C37.7681 42.0312 38.3149 42.1406 38.9243 42.125C39.1431 42.125 39.4399 42.1016 39.8149 42.0547C40.2056 42.0078 40.6274 41.8906 41.0806 41.7031L41.4321 42.7578ZM19.2603 24.125C18.854 24.7812 18.479 25.4609 18.1353 26.1641C17.8071 26.8672 17.5024 27.5859 17.2212 28.3203C16.9399 29.0391 16.6821 29.7578 16.4478 30.4766C16.2134 31.1953 15.979 31.8828 15.7446 32.5391C15.5103 33.2578 15.2524 33.9609 14.9712 34.6484C14.7056 35.3203 14.4009 35.9766 14.0571 36.6172C15.229 35.9297 16.604 35.2109 18.1821 34.4609C19.7603 33.7109 21.4478 33.0703 23.2446 32.5391L19.2603 24.125ZM40.7056 10.3906H52.4712L70.2134 31.9531V14.3281C70.2134 14.0156 70.1509 13.6797 70.0259 13.3203C69.9165 12.9609 69.7056 12.6328 69.3931 12.3359C69.0962 12.0234 68.6821 11.7656 68.1509 11.5625C67.6196 11.3594 66.9321 11.2578 66.0884 11.2578V10.3906H76.4712V11.2578C75.6118 11.2578 74.9165 11.3516 74.3853 11.5391C73.854 11.7109 73.4321 11.9531 73.1196 12.2656C72.8228 12.5625 72.6196 12.9062 72.5103 13.2969C72.4009 13.6875 72.3462 14.1016 72.3462 14.5391V44H70.2134L46.9399 15.9219V39.875C46.9399 40.1875 46.9868 40.5312 47.0806 40.9062C47.1899 41.2812 47.3853 41.6328 47.6665 41.9609C47.9634 42.2891 48.3774 42.5703 48.9087 42.8047C49.4556 43.0234 50.1743 43.1328 51.0649 43.1328V44H40.7056V43.1328C41.5493 43.1328 42.2368 43.0469 42.7681 42.875C43.3149 42.6875 43.7368 42.4453 44.0337 42.1484C44.3462 41.8516 44.5571 41.5078 44.6665 41.1172C44.7759 40.7266 44.8306 40.3125 44.8306 39.875V13.3672C44.4556 12.9453 44.1118 12.6016 43.7993 12.3359C43.4868 12.0703 43.1665 11.8594 42.8384 11.7031C42.5259 11.5313 42.1978 11.4141 41.854 11.3516C41.5103 11.2891 41.1274 11.2578 40.7056 11.2578V10.3906ZM103.846 44H88.1431V43.1328C89.0024 43.1328 89.6978 43.0469 90.229 42.875C90.7603 42.6875 91.1743 42.4453 91.4712 42.1484C91.7837 41.8516 91.9946 41.5078 92.104 41.1172C92.2134 40.7266 92.2681 40.3125 92.2681 39.875V12.2188H89.2915C88.4634 12.2188 87.5884 12.2891 86.6665 12.4297C85.7603 12.5547 84.854 12.8125 83.9478 13.2031C83.0415 13.5781 82.1665 14.1016 81.3228 14.7734C80.479 15.4453 79.7134 16.3203 79.0259 17.3984L78.0649 17.2578C78.4868 16.6016 78.8071 15.8828 79.0259 15.1016C79.2603 14.3047 79.4399 13.5547 79.5649 12.8516C79.6899 12.0391 79.7681 11.2187 79.7993 10.3906H112.471C112.252 10.8281 112.081 11.2812 111.956 11.75C111.831 12.2188 111.729 12.6875 111.651 13.1562C111.573 13.6094 111.518 14.0469 111.487 14.4688C111.471 14.875 111.463 15.2344 111.463 15.5469C111.463 15.7188 111.463 15.875 111.463 16.0156C111.463 16.1406 111.471 16.25 111.487 16.3438C111.502 16.4531 111.518 16.5547 111.534 16.6484L110.667 16.7891C110.604 16.0859 110.401 15.4844 110.057 14.9844C109.729 14.4844 109.315 14.0703 108.815 13.7422C108.331 13.3984 107.792 13.125 107.198 12.9219C106.604 12.7187 106.018 12.5703 105.44 12.4766C104.877 12.3672 104.346 12.2969 103.846 12.2656C103.346 12.2344 102.948 12.2188 102.651 12.2188H99.7212V39.875C99.7212 40.1875 99.7681 40.5312 99.8618 40.9062C99.9556 41.2812 100.151 41.6328 100.448 41.9609C100.745 42.2891 101.159 42.5703 101.69 42.8047C102.237 43.0234 102.956 43.1328 103.846 43.1328V44ZM129.956 44H114.252V43.1328C115.096 43.1328 115.784 43.0469 116.315 42.875C116.862 42.6875 117.284 42.4453 117.581 42.1484C117.893 41.8516 118.104 41.5078 118.213 41.1172C118.323 40.7266 118.377 40.3125 118.377 39.875V14.3281C118.377 14.0156 118.315 13.6797 118.19 13.3203C118.081 12.9609 117.87 12.6328 117.557 12.3359C117.26 12.0234 116.846 11.7656 116.315 11.5625C115.784 11.3594 115.096 11.2578 114.252 11.2578V10.3906H129.956V11.2578C129.096 11.2578 128.393 11.3516 127.846 11.5391C127.315 11.7109 126.893 11.9531 126.581 12.2656C126.284 12.5625 126.081 12.9062 125.971 13.2969C125.862 13.6875 125.807 14.1016 125.807 14.5391V39.875C125.807 40.1875 125.854 40.5312 125.948 40.9062C126.057 41.2812 126.252 41.6328 126.534 41.9609C126.831 42.2891 127.252 42.5703 127.799 42.8047C128.346 43.0234 129.065 43.1328 129.956 43.1328V44ZM149.104 44H133.424V43.1328C134.252 43.1328 134.932 43.0547 135.463 42.8984C135.995 42.7266 136.417 42.5 136.729 42.2188C137.042 41.9219 137.252 41.5859 137.362 41.2109C137.487 40.8359 137.549 40.4375 137.549 40.0156V4.78906C137.549 4.47656 137.487 4.14062 137.362 3.78125C137.252 3.42188 137.042 3.09375 136.729 2.79688C136.432 2.48438 136.018 2.22656 135.487 2.02344C134.956 1.82031 134.268 1.71875 133.424 1.71875V0.851562H144.979V39.875C144.979 40.1875 145.026 40.5312 145.12 40.9062C145.229 41.2812 145.424 41.6328 145.706 41.9609C146.002 42.2891 146.417 42.5703 146.948 42.8047C147.495 43.0234 148.213 43.1328 149.104 43.1328V44ZM171.674 43.7188C170.252 44.2969 168.924 44.6875 167.69 44.8906C166.471 45.0938 165.37 45.1953 164.385 45.1953C162.995 45.1953 161.667 44.9297 160.401 44.3984C159.135 43.8672 157.932 43.1641 156.792 42.2891C155.667 41.4141 154.596 40.4141 153.581 39.2891C152.581 38.1641 151.627 37.0156 150.721 35.8438C149.831 34.6562 148.987 33.4844 148.19 32.3281C147.409 31.1719 146.674 30.1328 145.987 29.2109C147.768 27.8203 149.448 26.3281 151.026 24.7344C151.698 24.0625 152.377 23.3359 153.065 22.5547C153.768 21.7578 154.432 20.9297 155.057 20.0703C155.698 19.1953 156.284 18.2969 156.815 17.375C157.346 16.4375 157.784 15.4922 158.127 14.5391C158.159 14.4609 158.182 14.3828 158.198 14.3047C158.213 14.2266 158.221 14.1406 158.221 14.0469C158.221 13.7656 158.143 13.4609 157.987 13.1328C157.846 12.8047 157.604 12.5 157.26 12.2188C156.932 11.9375 156.495 11.7109 155.948 11.5391C155.417 11.3516 154.768 11.2578 154.002 11.2578V10.3906H166.87C166.354 12.4531 165.627 14.3516 164.69 16.0859C163.768 17.8047 162.706 19.3672 161.502 20.7734C160.315 22.1797 159.026 23.4219 157.635 24.5C156.26 25.5781 154.862 26.5078 153.44 27.2891C155.268 29.3672 156.956 31.3594 158.502 33.2656C160.065 35.1719 161.495 36.8516 162.792 38.3047C164.104 39.7578 165.284 40.9219 166.331 41.7969C167.393 42.6562 168.338 43.0859 169.167 43.0859C169.385 43.0859 169.69 43.0625 170.081 43.0156C170.471 42.9688 170.893 42.8516 171.346 42.6641L171.674 43.7188ZM211.354 42.7578C209.932 43.3359 208.635 43.7266 207.463 43.9297C206.292 44.1328 205.237 44.2344 204.299 44.2344C203.549 44.2344 202.901 44.1875 202.354 44.0938C201.807 44.0156 201.338 43.9141 200.948 43.7891C200.495 43.6484 200.104 43.4922 199.776 43.3203C199.088 42.9297 198.487 42.4219 197.971 41.7969C197.456 41.1719 196.987 40.5 196.565 39.7812C196.159 39.0625 195.792 38.3203 195.463 37.5547C195.135 36.7891 194.815 36.0703 194.502 35.3984L193.917 34.1562C192.338 34.6094 190.862 35.1328 189.487 35.7266C188.127 36.3047 186.917 36.8828 185.854 37.4609C184.792 38.0234 183.893 38.5469 183.159 39.0312C182.44 39.5 181.932 39.8438 181.635 40.0625C181.057 40.7031 180.409 41.2734 179.69 41.7734C178.971 42.2734 178.167 42.7031 177.276 43.0625C176.385 43.4062 175.393 43.6719 174.299 43.8594C173.206 44.0469 172.002 44.1406 170.69 44.1406L170.456 43.1328C171.971 42.8828 173.276 42.3984 174.37 41.6797C175.479 40.9609 176.432 40.0781 177.229 39.0312C178.026 37.9688 178.706 36.7812 179.268 35.4688C179.831 34.1406 180.331 32.7422 180.768 31.2734C181.018 30.4297 181.346 29.5391 181.752 28.6016C182.174 27.6641 182.674 26.7578 183.252 25.8828C183.846 24.9922 184.518 24.1641 185.268 23.3984C186.034 22.6172 186.901 21.9609 187.87 21.4297C187.604 20.9297 187.338 20.4219 187.073 19.9062C186.823 19.375 186.581 18.8438 186.346 18.3125C186.018 17.6875 185.69 17 185.362 16.25C185.034 15.4844 184.643 14.7812 184.19 14.1406C183.752 13.4844 183.229 12.9375 182.62 12.5C182.026 12.0625 181.284 11.8438 180.393 11.8438C179.768 11.8438 179.151 11.9141 178.542 12.0547C177.948 12.1953 177.377 12.3672 176.831 12.5703L176.502 11.6094C177.862 11.1563 179.237 10.7734 180.627 10.4609C182.034 10.1328 183.424 9.96875 184.799 9.96875C185.456 9.96875 186.104 10.0156 186.745 10.1094C187.385 10.1875 188.002 10.3359 188.596 10.5547C189.112 10.7422 189.612 11.0547 190.096 11.4922C190.581 11.9141 191.042 12.4219 191.479 13.0156C191.917 13.5938 192.323 14.2188 192.698 14.8906C193.088 15.5625 193.448 16.2344 193.776 16.9062C194.12 17.5781 194.424 18.2188 194.69 18.8281C194.971 19.4219 195.213 19.9375 195.417 20.375C196.792 23.3281 198.159 26.2891 199.518 29.2578C200.877 32.2109 202.338 35.125 203.901 38C204.182 38.5156 204.479 39.0234 204.792 39.5234C205.12 40.0234 205.479 40.4688 205.87 40.8594C206.276 41.25 206.721 41.5625 207.206 41.7969C207.69 42.0312 208.237 42.1406 208.846 42.125C209.065 42.125 209.362 42.1016 209.737 42.0547C210.127 42.0078 210.549 41.8906 211.002 41.7031L211.354 42.7578ZM189.182 24.125C188.776 24.7812 188.401 25.4609 188.057 26.1641C187.729 26.8672 187.424 27.5859 187.143 28.3203C186.862 29.0391 186.604 29.7578 186.37 30.4766C186.135 31.1953 185.901 31.8828 185.667 32.5391C185.432 33.2578 185.174 33.9609 184.893 34.6484C184.627 35.3203 184.323 35.9766 183.979 36.6172C185.151 35.9297 186.526 35.2109 188.104 34.4609C189.682 33.7109 191.37 33.0703 193.167 32.5391L189.182 24.125Z" fill="white"/>
</svg>
